<mxfile host="app.diagrams.net" modified="2021-04-14T09:48:27.446Z" agent="5.0 (X11; Linux x86_64) AppleWebKit/537.36 (KHTML, like Gecko) Chrome/89.0.4389.72 Safari/537.36" etag="KbzO6ReZMZink3N4fjGG" version="14.5.8" type="github">
  <diagram id="Y2SBLT11GOD374a_21we" name="Page-1">
    <mxGraphModel dx="1008" dy="570" grid="1" gridSize="10" guides="1" tooltips="1" connect="1" arrows="1" fold="1" page="1" pageScale="1" pageWidth="850" pageHeight="1100" math="1" shadow="0">
      <root>
        <mxCell id="0" />
        <mxCell id="1" parent="0" />
        <mxCell id="5acEDl_qkeh4cWWempdU-1" value="&lt;b&gt;Initial Guess&lt;/b&gt;" style="rounded=0;whiteSpace=wrap;html=1;fillColor=#dae8fc;strokeColor=#6c8ebf;" vertex="1" parent="1">
          <mxGeometry x="40" y="130" width="100" height="40" as="geometry" />
        </mxCell>
        <mxCell id="5acEDl_qkeh4cWWempdU-2" value="&lt;b&gt;Form `F`&lt;/b&gt;" style="rounded=0;whiteSpace=wrap;html=1;fillColor=#d5e8d4;strokeColor=#82b366;" vertex="1" parent="1">
          <mxGeometry x="179" y="130" width="100" height="40" as="geometry" />
        </mxCell>
        <mxCell id="5acEDl_qkeh4cWWempdU-4" value="&lt;b&gt;Diagonalize&amp;nbsp;`F`&lt;/b&gt;" style="rounded=0;whiteSpace=wrap;html=1;fillColor=#d5e8d4;strokeColor=#82b366;" vertex="1" parent="1">
          <mxGeometry x="320" y="130" width="100" height="40" as="geometry" />
        </mxCell>
        <mxCell id="5acEDl_qkeh4cWWempdU-6" value="&lt;b&gt;Converged?&lt;/b&gt;" style="rhombus;whiteSpace=wrap;html=1;fillColor=#f5f5f5;strokeColor=#666666;fontColor=#333333;" vertex="1" parent="1">
          <mxGeometry x="600" y="120" width="90" height="60" as="geometry" />
        </mxCell>
        <mxCell id="5acEDl_qkeh4cWWempdU-7" value="&lt;b&gt;Update `D`&lt;/b&gt;" style="rounded=0;whiteSpace=wrap;html=1;fillColor=#d5e8d4;strokeColor=#82b366;" vertex="1" parent="1">
          <mxGeometry x="456" y="130" width="100" height="40" as="geometry" />
        </mxCell>
        <mxCell id="5acEDl_qkeh4cWWempdU-8" value="" style="endArrow=openThin;html=1;entryX=0;entryY=0.5;entryDx=0;entryDy=0;endFill=0;strokeWidth=2;" edge="1" parent="1" target="5acEDl_qkeh4cWWempdU-2">
          <mxGeometry width="50" height="50" relative="1" as="geometry">
            <mxPoint x="140" y="150" as="sourcePoint" />
            <mxPoint x="190" y="100" as="targetPoint" />
          </mxGeometry>
        </mxCell>
        <mxCell id="5acEDl_qkeh4cWWempdU-9" value="" style="endArrow=openThin;html=1;entryX=0;entryY=0.5;entryDx=0;entryDy=0;fillColor=#ffe6cc;strokeColor=#d79b00;strokeWidth=2;endFill=0;" edge="1" parent="1">
          <mxGeometry width="50" height="50" relative="1" as="geometry">
            <mxPoint x="279" y="149.5" as="sourcePoint" />
            <mxPoint x="318" y="149.5" as="targetPoint" />
          </mxGeometry>
        </mxCell>
        <mxCell id="5acEDl_qkeh4cWWempdU-10" value="" style="endArrow=openThin;html=1;entryX=0;entryY=0.5;entryDx=0;entryDy=0;fillColor=#ffe6cc;strokeColor=#d79b00;strokeWidth=2;endFill=0;" edge="1" parent="1">
          <mxGeometry width="50" height="50" relative="1" as="geometry">
            <mxPoint x="418" y="149.5" as="sourcePoint" />
            <mxPoint x="457" y="149.5" as="targetPoint" />
          </mxGeometry>
        </mxCell>
        <mxCell id="5acEDl_qkeh4cWWempdU-11" value="" style="endArrow=openThin;html=1;entryX=0;entryY=0.5;entryDx=0;entryDy=0;fillColor=#ffe6cc;strokeColor=#d79b00;strokeWidth=2;endFill=0;" edge="1" parent="1" target="5acEDl_qkeh4cWWempdU-6">
          <mxGeometry width="50" height="50" relative="1" as="geometry">
            <mxPoint x="556" y="149.5" as="sourcePoint" />
            <mxPoint x="595" y="149.5" as="targetPoint" />
          </mxGeometry>
        </mxCell>
        <mxCell id="5acEDl_qkeh4cWWempdU-12" value="" style="endArrow=openThin;html=1;exitX=0.5;exitY=1;exitDx=0;exitDy=0;entryX=0.5;entryY=1;entryDx=0;entryDy=0;fillColor=#ffe6cc;strokeColor=#d79b00;strokeWidth=2;endFill=0;" edge="1" parent="1" source="5acEDl_qkeh4cWWempdU-6" target="5acEDl_qkeh4cWWempdU-2">
          <mxGeometry width="50" height="50" relative="1" as="geometry">
            <mxPoint x="646" y="240" as="sourcePoint" />
            <mxPoint x="645" y="241" as="targetPoint" />
            <Array as="points">
              <mxPoint x="645" y="200" />
              <mxPoint x="440" y="200" />
              <mxPoint x="229" y="200" />
            </Array>
          </mxGeometry>
        </mxCell>
        <mxCell id="5acEDl_qkeh4cWWempdU-14" value="" style="endArrow=openThin;html=1;entryX=0;entryY=0.5;entryDx=0;entryDy=0;endFill=0;strokeWidth=2;" edge="1" parent="1">
          <mxGeometry width="50" height="50" relative="1" as="geometry">
            <mxPoint x="690" y="149.5" as="sourcePoint" />
            <mxPoint x="729" y="149.5" as="targetPoint" />
          </mxGeometry>
        </mxCell>
        <mxCell id="5acEDl_qkeh4cWWempdU-15" value="&lt;b&gt;Finalize&lt;/b&gt;" style="rounded=0;whiteSpace=wrap;html=1;fillColor=#dae8fc;strokeColor=#6c8ebf;" vertex="1" parent="1">
          <mxGeometry x="730" y="130" width="100" height="40" as="geometry" />
        </mxCell>
        <mxCell id="5acEDl_qkeh4cWWempdU-18" value="&lt;b&gt;&lt;font color=&quot;#000000&quot;&gt;YES&lt;/font&gt;&lt;/b&gt;" style="text;html=1;strokeColor=none;fillColor=none;align=center;verticalAlign=middle;whiteSpace=wrap;rounded=0;fontColor=#B266FF;" vertex="1" parent="1">
          <mxGeometry x="680" y="130" width="40" height="20" as="geometry" />
        </mxCell>
        <mxCell id="5acEDl_qkeh4cWWempdU-19" value="&lt;b&gt;&lt;font color=&quot;#000000&quot;&gt;NO&lt;/font&gt;&lt;/b&gt;" style="text;html=1;strokeColor=none;fillColor=none;align=center;verticalAlign=middle;whiteSpace=wrap;rounded=0;fontColor=#B266FF;" vertex="1" parent="1">
          <mxGeometry x="640" y="180" width="40" height="20" as="geometry" />
        </mxCell>
      </root>
    </mxGraphModel>
  </diagram>
</mxfile>
